mastitorrents.com
 
http://mastitorrents.com/forums/index.php


General
Complete name                    : D:\Temporary Folder\Garma Garam (2005).avi
Format                           : AVI
Format/Info                      : Audio Video Interleave
File size                        : 1.47 GiB
Duration                         : 1h 59mn
Overall bit rate                 : 1 756 Kbps

Video
ID                               : 0
Format                           : MPEG-4 Visual
Format profile                   : Advanced Simple@L5
Format settings, BVOP            : Yes
Format settings, QPel            : No
Format settings, GMC             : No warppoints
Format settings, Matrix          : Default (H.263)
Muxing mode                      : Packed bitstream
Codec ID                         : XVID
Codec ID/Hint                    : XviD
Duration                         : 1h 59mn
Bit rate                         : 1 558 Kbps
Width                            : 832 pixels
Height                           : 400 pixels
Display aspect ratio             : 2.080
Frame rate                       : 23.976 fps
Color space                      : YUV
Chroma subsampling               : 4:2:0
Bit depth                        : 8 bits
Scan type                        : Progressive
Compression mode                 : Lossy
Bits/(Pixel*Frame)               : 0.195
Stream size                      : 1.30 GiB (89%)
Writing library                  : XviD 1.2.1 (UTC 2008-12-04)

Audio
ID                               : 1
Format                           : MPEG Audio
Format version                   : Version 1
Format profile                   : Layer 3
Mode                             : Joint stereo
Mode extension                   : MS Stereo
Codec ID                         : 55
Codec ID/Hint                    : MP3
Duration                         : 1h 59mn
Bit rate mode                    : Variable
Bit rate                         : 192 Kbps
Channel(s)                       : 2 channels
Sampling rate                    : 48.0 KHz
Compression mode                 : Lossy
Stream size                      : 159 MiB (11%)
Alignment                        : Aligned on interleaves
Interleave, duration             : 24 ms (0.58 video frame)
Interleave, preload duration     : 265 ms
Title                            : hdencodertox-pid3
Writing library                  : LAME3.98r
Encoding settings                : -m j -V 4 -q 3 -lowpass 18.6 --abr 192 


SYNOPSIS

Rahul and Neha are inseparable lovers, whereas Sapna and Vishal are  incorrigible lovers. Rahul obtains the job of a driver in a rich  business house and exercising his charm and style he wins the heart of  Tania, the only pampered daughter of Mr. Dewan. Unknown to Tania, Rahul  starts cheating on her and fills the coffer of his beloved Neha and soon  luck runs out and Rahul is caught red-handed making love to Neha by his  Father-in-Law Mr. Dewan and before he could spill beans he is brutally  murdered by Rahul. Sapna on other hand comes to Mumbai to participate in  a beauty pageant organised by Rahul. After being rejected, she  challenges Rahul that she will win the coveted rewards and awards by  means of taking advantage of weakness of his wife Tania. Sapna develops a  lesbian relationships with her, and armed with erotic photographs  showing herself in compromising position with his wife Tania, She tries  to blackmail Rahul. But shrewd crook Rahul, converts his weakness to  strength. How ?